<svg stroke="currentColor" fill="currentColor" stroke-width="0" viewBox="0 0 24 24" height="1em" width="1em" xmlns="http://www.w3.org/2000/svg">
  <defs>
    <linearGradient id="grad1" x1="0%" y1="0%" x2="100%" y2="100%">
      <stop offset="0%" style="stop-color:#1db954;stop-opacity:1" />
      <stop offset="50%" style="stop-color:#bda95c;stop-opacity:1" />
      <stop offset="100%" style="stop-color:#ff4141;stop-opacity:1" />
    </linearGradient>
  </defs>
  <path fill="none" d="M0 0h24v24H0z"></path>
  <path fill="url(#grad1)" d="M19 3H5c-1.1 0-2 .9-2 2v14c0 1.1.9 2 2 2h14c1.1 0 2-.9 2-2V5c0-1.1-.9-2-2-2zm-5 11.5h.25V19h-4.5v-4.5H10c.55 0 1-.45 1-1V5h2v8.5c0 .55.45 1 1 1zM5 5h2v8.5c0 .55.45 1 1 1h.25V19H5V5zm14 14h-3.25v-4.5H16c.55 0 1-.45 1-1V5h2v14z"></path>
</svg>
